<svg xmlns="http://www.w3.org/2000/svg" viewBox="0 0 1200 630" role="img" aria-label="Compute Current AI Infrastructure Intelligence">
  <rect width="1200" height="630" fill="#070b14"/>
  <path d="M0 498c152-88 288-117 408-87s239 18 357-36 263-66 435-36v291H0Z" fill="#0e1a2b"/>
  <path d="M92 428h1016" stroke="#22324b" stroke-width="2"/>
  <path d="M120 462h960" stroke="#182840" stroke-width="2"/>
  <g fill="none" stroke-linecap="round" stroke-width="10">
    <path d="M820 219c55-97 137-145 246-145h68" stroke="#8bd3ff"/>
    <path d="M1136 157c-55 97-137 145-246 145h-68" stroke="#72f2a7"/>
  </g>
  <g fill="#16243a" stroke="#31435f" stroke-width="2">
    <rect x="92" y="402" width="70" height="96" rx="8"/>
    <rect x="182" y="358" width="70" height="140" rx="8"/>
    <rect x="272" y="382" width="70" height="116" rx="8"/>
    <rect x="392" y="388" width="116" height="110" rx="10"/>
    <rect x="530" y="338" width="116" height="160" rx="10"/>
    <rect x="668" y="374" width="116" height="124" rx="10"/>
  </g>
  <g stroke="#72f2a7" stroke-width="3" opacity=".65">
    <path d="M428 423h44M428 448h44M428 473h44"/>
    <path d="M566 373h44M566 398h44M566 423h44M566 448h44"/>
    <path d="M704 409h44M704 434h44M704 459h44"/>
  </g>
  <text x="92" y="158" fill="#f5f8ff" font-family="Inter, Arial, sans-serif" font-size="76" font-weight="800">Compute Current</text>
  <text x="96" y="222" fill="#9eb2d4" font-family="Inter, Arial, sans-serif" font-size="30" font-weight="600">AI Infrastructure Intelligence</text>
  <text x="96" y="286" fill="#d7e2f7" font-family="Inter, Arial, sans-serif" font-size="34">Data centers · chips · power · cloud capacity</text>
</svg>
