<svg xmlns="http://www.w3.org/2000/svg" width="1344" height="768" viewBox="0 0 1344 768" fill="none">
  <defs>
    <linearGradient id="bg" x1="120" y1="70" x2="1180" y2="690" gradientUnits="userSpaceOnUse">
      <stop stop-color="rgb(143 87 117)"/>
      <stop offset="0.42" stop-color="#111829"/>
      <stop offset="1" stop-color="#090C12"/>
    </linearGradient>
    <filter id="noise">
      <feTurbulence type="fractalNoise" baseFrequency="0.84" numOctaves="2" stitchTiles="stitch"/>
      <feComponentTransfer><feFuncA type="table" tableValues="0 0 0.03 0.04"/></feComponentTransfer>
    </filter>
  </defs>
  <rect width="1344" height="768" rx="40" fill="url(#bg)"/>
  <circle cx="284" cy="172" r="232" fill="rgb(111 73 153)" fill-opacity="0.22"/>
  <circle cx="1080" cy="138" r="194" fill="rgb(153 181 213)" fill-opacity="0.15"/>
  <rect x="70" y="72" width="1204" height="624" rx="34" stroke="rgba(255,255,255,0.12)" fill="rgba(255,255,255,0.03)"/>
  <path d="M126 592C250 506 356 460 456 458C564 456 650 520 758 520C890 520 998 420 1206 244" stroke="#E8F0FF" stroke-opacity="0.45" stroke-width="4"/>
  <g stroke="rgba(255,255,255,0.08)">
    <path d="M108 604H1236"/>
    <path d="M108 556H1236"/>
    <path d="M108 508H1236"/>
    <path d="M210 112V658"/>
    <path d="M488 112V658"/>
    <path d="M766 112V658"/>
    <path d="M1044 112V658"/>
  </g>
  <text x="118" y="164" fill="#F6F8FF" font-family="Inter, Arial, sans-serif" font-size="20" font-weight="700" letter-spacing="0.12em">AI / DATA CENTER SIGNAL</text>
  <text x="118" y="236" fill="#F6F8FF" font-family="Inter, Arial, sans-serif" font-size="54" font-weight="800">As data center campuses grow, so d</text>
  <text x="118" y="292" fill="#CBD8F5" font-family="Inter, Arial, sans-serif" font-size="26" font-weight="600">Data Center Dynamics</text>
  <text x="118" y="612" fill="#C1CDE6" font-family="Inter, Arial, sans-serif" font-size="20" font-weight="600">Fallback editorial artwork generated locally</text>
  <rect width="1344" height="768" rx="40" filter="url(#noise)"/>
</svg>