<svg xmlns="http://www.w3.org/2000/svg" width="1344" height="768" viewBox="0 0 1344 768" fill="none">
  <defs>
    <linearGradient id="bg" x1="120" y1="40" x2="1120" y2="720" gradientUnits="userSpaceOnUse">
      <stop stop-color="#20355C"/>
      <stop offset="0.48" stop-color="#101724"/>
      <stop offset="1" stop-color="#0A0D14"/>
    </linearGradient>
    <linearGradient id="glow" x1="160" y1="140" x2="820" y2="540" gradientUnits="userSpaceOnUse">
      <stop stop-color="rgba(139,178,255,0.85)"/>
      <stop offset="1" stop-color="rgba(78,212,192,0.15)"/>
    </linearGradient>
    <filter id="noise">
      <feTurbulence type="fractalNoise" baseFrequency="0.78" numOctaves="2" stitchTiles="stitch"/>
      <feColorMatrix type="saturate" values="0"/>
      <feComponentTransfer>
        <feFuncA type="table" tableValues="0 0 0.03 0.04"/>
      </feComponentTransfer>
    </filter>
  </defs>
  <rect width="1344" height="768" rx="40" fill="url(#bg)"/>
  <circle cx="260" cy="168" r="220" fill="#6D8DFF" fill-opacity="0.16"/>
  <circle cx="1080" cy="142" r="180" fill="#63F3D9" fill-opacity="0.08"/>
  <rect x="64" y="80" width="1216" height="608" rx="28" stroke="rgba(255,255,255,0.10)" fill="rgba(255,255,255,0.02)"/>
  <path d="M110 594C230 482 334 428 440 420C560 410 646 454 754 446C878 438 992 342 1224 190" stroke="#B7CBFF" stroke-opacity="0.34" stroke-width="4"/>
  <path d="M110 622C300 580 430 530 560 546C710 564 818 658 1086 622" stroke="#84EBD6" stroke-opacity="0.16" stroke-width="3"/>
  <g fill="white" fill-opacity="0.05">
    <rect x="116" y="130" width="140" height="12" rx="6"/>
    <rect x="116" y="160" width="270" height="18" rx="9"/>
    <rect x="116" y="196" width="390" height="18" rx="9"/>
    <rect x="116" y="250" width="168" height="10" rx="5"/>
    <rect x="116" y="274" width="300" height="10" rx="5"/>
  </g>
  <text x="116" y="500" fill="#F4F7FF" font-family="Inter, Arial, sans-serif" font-size="22" font-weight="700" letter-spacing="0.08em">AI / DATA CENTER SIGNAL BOARD</text>
  <text x="116" y="542" fill="#B8C8E9" font-family="Inter, Arial, sans-serif" font-size="42" font-weight="800">Curated infrastructure intelligence</text>
  <text x="116" y="584" fill="#B8C8E9" font-family="Inter, Arial, sans-serif" font-size="42" font-weight="800">every 8 hours</text>
  <rect width="1344" height="768" rx="40" filter="url(#noise)"/>
</svg>
