<svg xmlns="http://www.w3.org/2000/svg" width="1200" height="630" viewBox="0 0 1200 630" role="img" aria-label="Compute Current Supply Chain editorial fallback image">
  <defs>
    <linearGradient id="bg" x1="0" y1="0" x2="1" y2="1">
      <stop stop-color="#5a6140"/>
      <stop offset="0.52" stop-color="#101820"/>
      <stop offset="1" stop-color="#090c10"/>
    </linearGradient>
    <filter id="soft"><feGaussianBlur stdDeviation="20"/></filter>
  </defs>
  <rect width="1200" height="630" rx="28" fill="url(#bg)"/>
  <circle cx="220" cy="112" r="172" fill="#c1c96a" opacity="0.2" filter="url(#soft)"/>
  <circle cx="1010" cy="116" r="138" fill="#f2f5ed" opacity="0.1" filter="url(#soft)"/>
  <g stroke="rgba(255,255,255,0.1)" stroke-width="1">
    <path d="M88 460H1112"/>
    <path d="M88 374H1112"/>
    <path d="M236 82V548"/>
    <path d="M564 82V548"/>
    <path d="M892 82V548"/>
  </g>
  <path d="M104 446C236 366 348 332 456 338C590 346 674 420 792 384C894 352 982 258 1096 176" fill="none" stroke="#f4f7f0" stroke-opacity="0.54" stroke-width="5"/>
  <rect x="70" y="70" width="1060" height="490" rx="24" fill="rgba(255,255,255,0.035)" stroke="rgba(255,255,255,0.14)"/>
  <text x="104" y="162" fill="#dfe9f7" font-family="Inter, Arial, sans-serif" font-size="24" font-weight="800" letter-spacing="0.08em">Supply Chain</text>
  <text x="104" y="274" fill="#ffffff" font-family="Inter, Arial, sans-serif" font-size="70" font-weight="850">Compute Current</text>
  <text x="104" y="330" fill="#cbd8e8" font-family="Inter, Arial, sans-serif" font-size="30" font-weight="650">AI infrastructure intelligence</text>
  <text x="104" y="506" fill="#d6dfef" font-family="Inter, Arial, sans-serif" font-size="22" font-weight="720">Fallback editorial image</text>
</svg>